<svg class="rich-terminal" viewBox="0 0 1177 830.8" xmlns="http://www.w3.org/2000/svg">
    <!-- Generated with Rich https://www.textualize.io -->
    <style>

    @font-face {
        font-family: "Fira Code";
        src: local("FiraCode-Regular"),
                url("https://cdnjs.cloudflare.com/ajax/libs/firacode/6.2.0/woff2/FiraCode-Regular.woff2") format("woff2"),
                url("https://cdnjs.cloudflare.com/ajax/libs/firacode/6.2.0/woff/FiraCode-Regular.woff") format("woff");
        font-style: normal;
        font-weight: 400;
    }
    @font-face {
        font-family: "Fira Code";
        src: local("FiraCode-Bold"),
                url("https://cdnjs.cloudflare.com/ajax/libs/firacode/6.2.0/woff2/FiraCode-Bold.woff2") format("woff2"),
                url("https://cdnjs.cloudflare.com/ajax/libs/firacode/6.2.0/woff/FiraCode-Bold.woff") format("woff");
        font-style: bold;
        font-weight: 700;
    }

    .terminal-1964389130-matrix {
        font-family: Fira Code, monospace;
        font-size: 20px;
        line-height: 24.4px;
        font-variant-east-asian: full-width;
    }

    .terminal-1964389130-title {
        font-size: 18px;
        font-weight: bold;
        font-family: arial;
    }

    .terminal-1964389130-r1 { fill: #c5c8c6 }
.terminal-1964389130-r2 { fill: #e0e0e0 }
.terminal-1964389130-r3 { fill: #a0a3a6 }
.terminal-1964389130-r4 { fill: #7f7f7f }
.terminal-1964389130-r5 { fill: #ddedf9;font-weight: bold }
.terminal-1964389130-r6 { fill: #585858 }
.terminal-1964389130-r7 { fill: #0178d4 }
.terminal-1964389130-r8 { fill: #9e9e9e }
.terminal-1964389130-r9 { fill: #9e9e9e;font-weight: bold }
.terminal-1964389130-r10 { fill: #ab0a48;font-weight: bold }
.terminal-1964389130-r11 { fill: #1e1e1e }
.terminal-1964389130-r12 { fill: #191919 }
.terminal-1964389130-r13 { fill: #737373 }
.terminal-1964389130-r14 { fill: #ffa62b;font-weight: bold }
.terminal-1964389130-r15 { fill: #495259 }
    </style>

    <defs>
    <clipPath id="terminal-1964389130-clip-terminal">
      <rect x="0" y="0" width="1158.0" height="779.8" />
    </clipPath>
    <clipPath id="terminal-1964389130-line-0">
    <rect x="0" y="1.5" width="1159" height="24.65"/>
            </clipPath>
<clipPath id="terminal-1964389130-line-1">
    <rect x="0" y="25.9" width="1159" height="24.65"/>
            </clipPath>
<clipPath id="terminal-1964389130-line-2">
    <rect x="0" y="50.3" width="1159" height="24.65"/>
            </clipPath>
<clipPath id="terminal-1964389130-line-3">
    <rect x="0" y="74.7" width="1159" height="24.65"/>
            </clipPath>
<clipPath id="terminal-1964389130-line-4">
    <rect x="0" y="99.1" width="1159" height="24.65"/>
            </clipPath>
<clipPath id="terminal-1964389130-line-5">
    <rect x="0" y="123.5" width="1159" height="24.65"/>
            </clipPath>
<clipPath id="terminal-1964389130-line-6">
    <rect x="0" y="147.9" width="1159" height="24.65"/>
            </clipPath>
<clipPath id="terminal-1964389130-line-7">
    <rect x="0" y="172.3" width="1159" height="24.65"/>
            </clipPath>
<clipPath id="terminal-1964389130-line-8">
    <rect x="0" y="196.7" width="1159" height="24.65"/>
            </clipPath>
<clipPath id="terminal-1964389130-line-9">
    <rect x="0" y="221.1" width="1159" height="24.65"/>
            </clipPath>
<clipPath id="terminal-1964389130-line-10">
    <rect x="0" y="245.5" width="1159" height="24.65"/>
            </clipPath>
<clipPath id="terminal-1964389130-line-11">
    <rect x="0" y="269.9" width="1159" height="24.65"/>
            </clipPath>
<clipPath id="terminal-1964389130-line-12">
    <rect x="0" y="294.3" width="1159" height="24.65"/>
            </clipPath>
<clipPath id="terminal-1964389130-line-13">
    <rect x="0" y="318.7" width="1159" height="24.65"/>
            </clipPath>
<clipPath id="terminal-1964389130-line-14">
    <rect x="0" y="343.1" width="1159" height="24.65"/>
            </clipPath>
<clipPath id="terminal-1964389130-line-15">
    <rect x="0" y="367.5" width="1159" height="24.65"/>
            </clipPath>
<clipPath id="terminal-1964389130-line-16">
    <rect x="0" y="391.9" width="1159" height="24.65"/>
            </clipPath>
<clipPath id="terminal-1964389130-line-17">
    <rect x="0" y="416.3" width="1159" height="24.65"/>
            </clipPath>
<clipPath id="terminal-1964389130-line-18">
    <rect x="0" y="440.7" width="1159" height="24.65"/>
            </clipPath>
<clipPath id="terminal-1964389130-line-19">
    <rect x="0" y="465.1" width="1159" height="24.65"/>
            </clipPath>
<clipPath id="terminal-1964389130-line-20">
    <rect x="0" y="489.5" width="1159" height="24.65"/>
            </clipPath>
<clipPath id="terminal-1964389130-line-21">
    <rect x="0" y="513.9" width="1159" height="24.65"/>
            </clipPath>
<clipPath id="terminal-1964389130-line-22">
    <rect x="0" y="538.3" width="1159" height="24.65"/>
            </clipPath>
<clipPath id="terminal-1964389130-line-23">
    <rect x="0" y="562.7" width="1159" height="24.65"/>
            </clipPath>
<clipPath id="terminal-1964389130-line-24">
    <rect x="0" y="587.1" width="1159" height="24.65"/>
            </clipPath>
<clipPath id="terminal-1964389130-line-25">
    <rect x="0" y="611.5" width="1159" height="24.65"/>
            </clipPath>
<clipPath id="terminal-1964389130-line-26">
    <rect x="0" y="635.9" width="1159" height="24.65"/>
            </clipPath>
<clipPath id="terminal-1964389130-line-27">
    <rect x="0" y="660.3" width="1159" height="24.65"/>
            </clipPath>
<clipPath id="terminal-1964389130-line-28">
    <rect x="0" y="684.7" width="1159" height="24.65"/>
            </clipPath>
<clipPath id="terminal-1964389130-line-29">
    <rect x="0" y="709.1" width="1159" height="24.65"/>
            </clipPath>
<clipPath id="terminal-1964389130-line-30">
    <rect x="0" y="733.5" width="1159" height="24.65"/>
            </clipPath>
    </defs>

    <rect fill="#292929" stroke="rgba(255,255,255,0.35)" stroke-width="1" x="1" y="1" width="1175" height="828.8" rx="8"/><text class="terminal-1964389130-title" fill="#c5c8c6" text-anchor="middle" x="587" y="27">Vintage&#160;Story&#160;Server&#160;Manager</text>
            <g transform="translate(26,22)">
            <circle cx="0" cy="0" r="7" fill="#ff5f57"/>
            <circle cx="22" cy="0" r="7" fill="#febc2e"/>
            <circle cx="44" cy="0" r="7" fill="#28c840"/>
            </g>
        
    <g transform="translate(9, 41)" clip-path="url(#terminal-1964389130-clip-terminal)">
    <rect fill="#242f38" x="0" y="1.5" width="12.2" height="24.65" shape-rendering="crispEdges"/><rect fill="#242f38" x="12.2" y="1.5" width="12.2" height="24.65" shape-rendering="crispEdges"/><rect fill="#242f38" x="24.4" y="1.5" width="61" height="24.65" shape-rendering="crispEdges"/><rect fill="#242f38" x="85.4" y="1.5" width="12.2" height="24.65" shape-rendering="crispEdges"/><rect fill="#242f38" x="97.6" y="1.5" width="244" height="24.65" shape-rendering="crispEdges"/><rect fill="#242f38" x="341.6" y="1.5" width="341.6" height="24.65" shape-rendering="crispEdges"/><rect fill="#242f38" x="683.2" y="1.5" width="36.6" height="24.65" shape-rendering="crispEdges"/><rect fill="#242f38" x="719.8" y="1.5" width="73.2" height="24.65" shape-rendering="crispEdges"/><rect fill="#242f38" x="793" y="1.5" width="244" height="24.65" shape-rendering="crispEdges"/><rect fill="#242f38" x="1037" y="1.5" width="12.2" height="24.65" shape-rendering="crispEdges"/><rect fill="#242f38" x="1049.2" y="1.5" width="0" height="24.65" shape-rendering="crispEdges"/><rect fill="#242f38" x="1049.2" y="1.5" width="97.6" height="24.65" shape-rendering="crispEdges"/><rect fill="#242f38" x="1146.8" y="1.5" width="12.2" height="24.65" shape-rendering="crispEdges"/><rect fill="#1e1e1e" x="0" y="25.9" width="12.2" height="24.65" shape-rendering="crispEdges"/><rect fill="#1e1e1e" x="12.2" y="25.9" width="73.2" height="24.65" shape-rendering="crispEdges"/><rect fill="#1e1e1e" x="85.4" y="25.9" width="12.2" height="24.65" shape-rendering="crispEdges"/><rect fill="#1e1e1e" x="97.6" y="25.9" width="12.2" height="24.65" shape-rendering="crispEdges"/><rect fill="#1e1e1e" x="109.8" y="25.9" width="48.8" height="24.65" shape-rendering="crispEdges"/><rect fill="#1e1e1e" x="158.6" y="25.9" width="12.2" height="24.65" shape-rendering="crispEdges"/><rect fill="#1e1e1e" x="170.8" y="25.9" width="12.2" height="24.65" shape-rendering="crispEdges"/><rect fill="#1e1e1e" x="183" y="25.9" width="85.4" height="24.65" shape-rendering="crispEdges"/><rect fill="#1e1e1e" x="268.4" y="25.9" width="12.2" height="24.65" shape-rendering="crispEdges"/><rect fill="#1e1e1e" x="280.6" y="25.9" width="12.2" height="24.65" shape-rendering="crispEdges"/><rect fill="#1e1e1e" x="292.8" y="25.9" width="109.8" height="24.65" shape-rendering="crispEdges"/><rect fill="#1e1e1e" x="402.6" y="25.9" width="12.2" height="24.65" shape-rendering="crispEdges"/><rect fill="#0178d4" x="414.8" y="25.9" width="12.2" height="24.65" shape-rendering="crispEdges"/><rect fill="#0178d4" x="427" y="25.9" width="85.4" height="24.65" shape-rendering="crispEdges"/><rect fill="#0178d4" x="512.4" y="25.9" width="12.2" height="24.65" shape-rendering="crispEdges"/><rect fill="#1e1e1e" x="524.6" y="25.9" width="634.4" height="24.65" shape-rendering="crispEdges"/><rect fill="#1e1e1e" x="0" y="50.3" width="414.8" height="24.65" shape-rendering="crispEdges"/><rect fill="#1e1e1e" x="414.8" y="50.3" width="12.2" height="24.65" shape-rendering="crispEdges"/><rect fill="#1e1e1e" x="427" y="50.3" width="85.4" height="24.65" shape-rendering="crispEdges"/><rect fill="#1e1e1e" x="512.4" y="50.3" width="12.2" height="24.65" shape-rendering="crispEdges"/><rect fill="#1e1e1e" x="524.6" y="50.3" width="634.4" height="24.65" shape-rendering="crispEdges"/><rect fill="#1e1e1e" x="0" y="74.7" width="1159" height="24.65" shape-rendering="crispEdges"/><rect fill="#1e1e1e" x="0" y="99.1" width="24.4" height="24.65" shape-rendering="crispEdges"/><rect fill="#1e1e1e" x="24.4" y="99.1" width="12.2" height="24.65" shape-rendering="crispEdges"/><rect fill="#1e1e1e" x="36.6" y="99.1" width="1085.8" height="24.65" shape-rendering="crispEdges"/><rect fill="#1e1e1e" x="1122.4" y="99.1" width="12.2" height="24.65" shape-rendering="crispEdges"/><rect fill="#1e1e1e" x="1134.6" y="99.1" width="24.4" height="24.65" shape-rendering="crispEdges"/><rect fill="#1e1e1e" x="0" y="123.5" width="24.4" height="24.65" shape-rendering="crispEdges"/><rect fill="#1e1e1e" x="24.4" y="123.5" width="12.2" height="24.65" shape-rendering="crispEdges"/><rect fill="#1e1e1e" x="36.6" y="123.5" width="524.6" height="24.65" shape-rendering="crispEdges"/><rect fill="#1e1e1e" x="561.2" y="123.5" width="536.8" height="24.65" shape-rendering="crispEdges"/><rect fill="#000000" x="1098" y="123.5" width="24.4" height="24.65" shape-rendering="crispEdges"/><rect fill="#1e1e1e" x="1122.4" y="123.5" width="12.2" height="24.65" shape-rendering="crispEdges"/><rect fill="#1e1e1e" x="1134.6" y="123.5" width="24.4" height="24.65" shape-rendering="crispEdges"/><rect fill="#1e1e1e" x="0" y="147.9" width="24.4" height="24.65" shape-rendering="crispEdges"/><rect fill="#1e1e1e" x="24.4" y="147.9" width="12.2" height="24.65" shape-rendering="crispEdges"/><rect fill="#1e1e1e" x="36.6" y="147.9" width="488" height="24.65" shape-rendering="crispEdges"/><rect fill="#1e1e1e" x="524.6" y="147.9" width="12.2" height="24.65" shape-rendering="crispEdges"/><rect fill="#1e1e1e" x="536.8" y="147.9" width="36.6" height="24.65" shape-rendering="crispEdges"/><rect fill="#1e1e1e" x="573.4" y="147.9" width="12.2" height="24.65" shape-rendering="crispEdges"/><rect fill="#1e1e1e" x="585.6" y="147.9" width="134.2" height="24.65" shape-rendering="crispEdges"/><rect fill="#1e1e1e" x="719.8" y="147.9" width="378.2" height="24.65" shape-rendering="crispEdges"/><rect fill="#000000" x="1098" y="147.9" width="24.4" height="24.65" shape-rendering="crispEdges"/><rect fill="#1e1e1e" x="1122.4" y="147.9" width="12.2" height="24.65" shape-rendering="crispEdges"/><rect fill="#1e1e1e" x="1134.6" y="147.9" width="24.4" height="24.65" shape-rendering="crispEdges"/><rect fill="#1e1e1e" x="0" y="172.3" width="24.4" height="24.65" shape-rendering="crispEdges"/><rect fill="#1e1e1e" x="24.4" y="172.3" width="12.2" height="24.65" shape-rendering="crispEdges"/><rect fill="#1e1e1e" x="36.6" y="172.3" width="1061.4" height="24.65" shape-rendering="crispEdges"/><rect fill="#000000" x="1098" y="172.3" width="24.4" height="24.65" shape-rendering="crispEdges"/><rect fill="#1e1e1e" x="1122.4" y="172.3" width="12.2" height="24.65" shape-rendering="crispEdges"/><rect fill="#1e1e1e" x="1134.6" y="172.3" width="24.4" height="24.65" shape-rendering="crispEdges"/><rect fill="#1e1e1e" x="0" y="196.7" width="24.4" height="24.65" shape-rendering="crispEdges"/><rect fill="#1e1e1e" x="24.4" y="196.7" width="12.2" height="24.65" shape-rendering="crispEdges"/><rect fill="#1e1e1e" x="36.6" y="196.7" width="1061.4" height="24.65" shape-rendering="crispEdges"/><rect fill="#000000" x="1098" y="196.7" width="24.4" height="24.65" shape-rendering="crispEdges"/><rect fill="#1e1e1e" x="1122.4" y="196.7" width="12.2" height="24.65" shape-rendering="crispEdges"/><rect fill="#1e1e1e" x="1134.6" y="196.7" width="24.4" height="24.65" shape-rendering="crispEdges"/><rect fill="#1e1e1e" x="0" y="221.1" width="24.4" height="24.65" shape-rendering="crispEdges"/><rect fill="#1e1e1e" x="24.4" y="221.1" width="12.2" height="24.65" shape-rendering="crispEdges"/><rect fill="#1e1e1e" x="36.6" y="221.1" width="1061.4" height="24.65" shape-rendering="crispEdges"/><rect fill="#000000" x="1098" y="221.1" width="24.4" height="24.65" shape-rendering="crispEdges"/><rect fill="#1e1e1e" x="1122.4" y="221.1" width="12.2" height="24.65" shape-rendering="crispEdges"/><rect fill="#1e1e1e" x="1134.6" y="221.1" width="24.4" height="24.65" shape-rendering="crispEdges"/><rect fill="#1e1e1e" x="0" y="245.5" width="24.4" height="24.65" shape-rendering="crispEdges"/><rect fill="#1e1e1e" x="24.4" y="245.5" width="12.2" height="24.65" shape-rendering="crispEdges"/><rect fill="#1e1e1e" x="36.6" y="245.5" width="1061.4" height="24.65" shape-rendering="crispEdges"/><rect fill="#000000" x="1098" y="245.5" width="24.4" height="24.65" shape-rendering="crispEdges"/><rect fill="#1e1e1e" x="1122.4" y="245.5" width="12.2" height="24.65" shape-rendering="crispEdges"/><rect fill="#1e1e1e" x="1134.6" y="245.5" width="24.4" height="24.65" shape-rendering="crispEdges"/><rect fill="#1e1e1e" x="0" y="269.9" width="24.4" height="24.65" shape-rendering="crispEdges"/><rect fill="#1e1e1e" x="24.4" y="269.9" width="12.2" height="24.65" shape-rendering="crispEdges"/><rect fill="#1e1e1e" x="36.6" y="269.9" width="1061.4" height="24.65" shape-rendering="crispEdges"/><rect fill="#000000" x="1098" y="269.9" width="24.4" height="24.65" shape-rendering="crispEdges"/><rect fill="#1e1e1e" x="1122.4" y="269.9" width="12.2" height="24.65" shape-rendering="crispEdges"/><rect fill="#1e1e1e" x="1134.6" y="269.9" width="24.4" height="24.65" shape-rendering="crispEdges"/><rect fill="#1e1e1e" x="0" y="294.3" width="24.4" height="24.65" shape-rendering="crispEdges"/><rect fill="#1e1e1e" x="24.4" y="294.3" width="12.2" height="24.65" shape-rendering="crispEdges"/><rect fill="#1e1e1e" x="36.6" y="294.3" width="1061.4" height="24.65" shape-rendering="crispEdges"/><rect fill="#000000" x="1098" y="294.3" width="24.4" height="24.65" shape-rendering="crispEdges"/><rect fill="#1e1e1e" x="1122.4" y="294.3" width="12.2" height="24.65" shape-rendering="crispEdges"/><rect fill="#1e1e1e" x="1134.6" y="294.3" width="24.4" height="24.65" shape-rendering="crispEdges"/><rect fill="#1e1e1e" x="0" y="318.7" width="24.4" height="24.65" shape-rendering="crispEdges"/><rect fill="#1e1e1e" x="24.4" y="318.7" width="12.2" height="24.65" shape-rendering="crispEdges"/><rect fill="#1e1e1e" x="36.6" y="318.7" width="1061.4" height="24.65" shape-rendering="crispEdges"/><rect fill="#000000" x="1098" y="318.7" width="24.4" height="24.65" shape-rendering="crispEdges"/><rect fill="#1e1e1e" x="1122.4" y="318.7" width="12.2" height="24.65" shape-rendering="crispEdges"/><rect fill="#1e1e1e" x="1134.6" y="318.7" width="24.4" height="24.65" shape-rendering="crispEdges"/><rect fill="#1e1e1e" x="0" y="343.1" width="24.4" height="24.65" shape-rendering="crispEdges"/><rect fill="#1e1e1e" x="24.4" y="343.1" width="12.2" height="24.65" shape-rendering="crispEdges"/><rect fill="#1e1e1e" x="36.6" y="343.1" width="1061.4" height="24.65" shape-rendering="crispEdges"/><rect fill="#000000" x="1098" y="343.1" width="24.4" height="24.65" shape-rendering="crispEdges"/><rect fill="#1e1e1e" x="1122.4" y="343.1" width="12.2" height="24.65" shape-rendering="crispEdges"/><rect fill="#1e1e1e" x="1134.6" y="343.1" width="24.4" height="24.65" shape-rendering="crispEdges"/><rect fill="#1e1e1e" x="0" y="367.5" width="24.4" height="24.65" shape-rendering="crispEdges"/><rect fill="#1e1e1e" x="24.4" y="367.5" width="12.2" height="24.65" shape-rendering="crispEdges"/><rect fill="#1e1e1e" x="36.6" y="367.5" width="1061.4" height="24.65" shape-rendering="crispEdges"/><rect fill="#000000" x="1098" y="367.5" width="24.4" height="24.65" shape-rendering="crispEdges"/><rect fill="#1e1e1e" x="1122.4" y="367.5" width="12.2" height="24.65" shape-rendering="crispEdges"/><rect fill="#1e1e1e" x="1134.6" y="367.5" width="24.4" height="24.65" shape-rendering="crispEdges"/><rect fill="#1e1e1e" x="0" y="391.9" width="24.4" height="24.65" shape-rendering="crispEdges"/><rect fill="#1e1e1e" x="24.4" y="391.9" width="12.2" height="24.65" shape-rendering="crispEdges"/><rect fill="#1e1e1e" x="36.6" y="391.9" width="1061.4" height="24.65" shape-rendering="crispEdges"/><rect fill="#000000" x="1098" y="391.9" width="24.4" height="24.65" shape-rendering="crispEdges"/><rect fill="#1e1e1e" x="1122.4" y="391.9" width="12.2" height="24.65" shape-rendering="crispEdges"/><rect fill="#1e1e1e" x="1134.6" y="391.9" width="24.4" height="24.65" shape-rendering="crispEdges"/><rect fill="#1e1e1e" x="0" y="416.3" width="24.4" height="24.65" shape-rendering="crispEdges"/><rect fill="#1e1e1e" x="24.4" y="416.3" width="12.2" height="24.65" shape-rendering="crispEdges"/><rect fill="#1e1e1e" x="36.6" y="416.3" width="1061.4" height="24.65" shape-rendering="crispEdges"/><rect fill="#000000" x="1098" y="416.3" width="24.4" height="24.65" shape-rendering="crispEdges"/><rect fill="#1e1e1e" x="1122.4" y="416.3" width="12.2" height="24.65" shape-rendering="crispEdges"/><rect fill="#1e1e1e" x="1134.6" y="416.3" width="24.4" height="24.65" shape-rendering="crispEdges"/><rect fill="#1e1e1e" x="0" y="440.7" width="24.4" height="24.65" shape-rendering="crispEdges"/><rect fill="#1e1e1e" x="24.4" y="440.7" width="12.2" height="24.65" shape-rendering="crispEdges"/><rect fill="#1e1e1e" x="36.6" y="440.7" width="1061.4" height="24.65" shape-rendering="crispEdges"/><rect fill="#000000" x="1098" y="440.7" width="24.4" height="24.65" shape-rendering="crispEdges"/><rect fill="#1e1e1e" x="1122.4" y="440.7" width="12.2" height="24.65" shape-rendering="crispEdges"/><rect fill="#1e1e1e" x="1134.6" y="440.7" width="24.4" height="24.65" shape-rendering="crispEdges"/><rect fill="#1e1e1e" x="0" y="465.1" width="24.4" height="24.65" shape-rendering="crispEdges"/><rect fill="#1e1e1e" x="24.4" y="465.1" width="12.2" height="24.65" shape-rendering="crispEdges"/><rect fill="#1e1e1e" x="36.6" y="465.1" width="1061.4" height="24.65" shape-rendering="crispEdges"/><rect fill="#000000" x="1098" y="465.1" width="24.4" height="24.65" shape-rendering="crispEdges"/><rect fill="#1e1e1e" x="1122.4" y="465.1" width="12.2" height="24.65" shape-rendering="crispEdges"/><rect fill="#1e1e1e" x="1134.6" y="465.1" width="24.4" height="24.65" shape-rendering="crispEdges"/><rect fill="#1e1e1e" x="0" y="489.5" width="24.4" height="24.65" shape-rendering="crispEdges"/><rect fill="#1e1e1e" x="24.4" y="489.5" width="12.2" height="24.65" shape-rendering="crispEdges"/><rect fill="#1e1e1e" x="36.6" y="489.5" width="1061.4" height="24.65" shape-rendering="crispEdges"/><rect fill="#000000" x="1098" y="489.5" width="24.4" height="24.65" shape-rendering="crispEdges"/><rect fill="#1e1e1e" x="1122.4" y="489.5" width="12.2" height="24.65" shape-rendering="crispEdges"/><rect fill="#1e1e1e" x="1134.6" y="489.5" width="24.4" height="24.65" shape-rendering="crispEdges"/><rect fill="#1e1e1e" x="0" y="513.9" width="24.4" height="24.65" shape-rendering="crispEdges"/><rect fill="#1e1e1e" x="24.4" y="513.9" width="12.2" height="24.65" shape-rendering="crispEdges"/><rect fill="#1e1e1e" x="36.6" y="513.9" width="1061.4" height="24.65" shape-rendering="crispEdges"/><rect fill="#000000" x="1098" y="513.9" width="24.4" height="24.65" shape-rendering="crispEdges"/><rect fill="#1e1e1e" x="1122.4" y="513.9" width="12.2" height="24.65" shape-rendering="crispEdges"/><rect fill="#1e1e1e" x="1134.6" y="513.9" width="24.4" height="24.65" shape-rendering="crispEdges"/><rect fill="#1e1e1e" x="0" y="538.3" width="24.4" height="24.65" shape-rendering="crispEdges"/><rect fill="#1e1e1e" x="24.4" y="538.3" width="12.2" height="24.65" shape-rendering="crispEdges"/><rect fill="#1e1e1e" x="36.6" y="538.3" width="1061.4" height="24.65" shape-rendering="crispEdges"/><rect fill="#000000" x="1098" y="538.3" width="24.4" height="24.65" shape-rendering="crispEdges"/><rect fill="#1e1e1e" x="1122.4" y="538.3" width="12.2" height="24.65" shape-rendering="crispEdges"/><rect fill="#1e1e1e" x="1134.6" y="538.3" width="24.4" height="24.65" shape-rendering="crispEdges"/><rect fill="#1e1e1e" x="0" y="562.7" width="24.4" height="24.65" shape-rendering="crispEdges"/><rect fill="#1e1e1e" x="24.4" y="562.7" width="12.2" height="24.65" shape-rendering="crispEdges"/><rect fill="#1e1e1e" x="36.6" y="562.7" width="1061.4" height="24.65" shape-rendering="crispEdges"/><rect fill="#000000" x="1098" y="562.7" width="24.4" height="24.65" shape-rendering="crispEdges"/><rect fill="#1e1e1e" x="1122.4" y="562.7" width="12.2" height="24.65" shape-rendering="crispEdges"/><rect fill="#1e1e1e" x="1134.6" y="562.7" width="24.4" height="24.65" shape-rendering="crispEdges"/><rect fill="#1e1e1e" x="0" y="587.1" width="24.4" height="24.65" shape-rendering="crispEdges"/><rect fill="#1e1e1e" x="24.4" y="587.1" width="12.2" height="24.65" shape-rendering="crispEdges"/><rect fill="#1e1e1e" x="36.6" y="587.1" width="1085.8" height="24.65" shape-rendering="crispEdges"/><rect fill="#1e1e1e" x="1122.4" y="587.1" width="12.2" height="24.65" shape-rendering="crispEdges"/><rect fill="#1e1e1e" x="1134.6" y="587.1" width="24.4" height="24.65" shape-rendering="crispEdges"/><rect fill="#1e1e1e" x="0" y="611.5" width="24.4" height="24.65" shape-rendering="crispEdges"/><rect fill="#1e1e1e" x="24.4" y="611.5" width="1110.2" height="24.65" shape-rendering="crispEdges"/><rect fill="#1e1e1e" x="1134.6" y="611.5" width="24.4" height="24.65" shape-rendering="crispEdges"/><rect fill="#1e1e1e" x="0" y="635.9" width="24.4" height="24.65" shape-rendering="crispEdges"/><rect fill="#191919" x="24.4" y="635.9" width="12.2" height="24.65" shape-rendering="crispEdges"/><rect fill="#1e1e1e" x="36.6" y="635.9" width="878.4" height="24.65" shape-rendering="crispEdges"/><rect fill="#1e1e1e" x="915" y="635.9" width="12.2" height="24.65" shape-rendering="crispEdges"/><rect fill="#1e1e1e" x="927.2" y="635.9" width="12.2" height="24.65" shape-rendering="crispEdges"/><rect fill="#0178d4" x="939.4" y="635.9" width="61" height="24.65" shape-rendering="crispEdges"/><rect fill="#0178d4" x="1000.4" y="635.9" width="73.2" height="24.65" shape-rendering="crispEdges"/><rect fill="#0178d4" x="1073.6" y="635.9" width="61" height="24.65" shape-rendering="crispEdges"/><rect fill="#1e1e1e" x="1134.6" y="635.9" width="24.4" height="24.65" shape-rendering="crispEdges"/><rect fill="#1e1e1e" x="0" y="660.3" width="24.4" height="24.65" shape-rendering="crispEdges"/><rect fill="#191919" x="24.4" y="660.3" width="12.2" height="24.65" shape-rendering="crispEdges"/><rect fill="#1e1e1e" x="36.6" y="660.3" width="24.4" height="24.65" shape-rendering="crispEdges"/><rect fill="#1e1e1e" x="61" y="660.3" width="280.6" height="24.65" shape-rendering="crispEdges"/><rect fill="#1e1e1e" x="341.6" y="660.3" width="549" height="24.65" shape-rendering="crispEdges"/><rect fill="#1e1e1e" x="890.6" y="660.3" width="24.4" height="24.65" shape-rendering="crispEdges"/><rect fill="#1e1e1e" x="915" y="660.3" width="12.2" height="24.65" shape-rendering="crispEdges"/><rect fill="#1e1e1e" x="927.2" y="660.3" width="207.4" height="24.65" shape-rendering="crispEdges"/><rect fill="#1e1e1e" x="1134.6" y="660.3" width="24.4" height="24.65" shape-rendering="crispEdges"/><rect fill="#1e1e1e" x="0" y="684.7" width="24.4" height="24.65" shape-rendering="crispEdges"/><rect fill="#191919" x="24.4" y="684.7" width="12.2" height="24.65" shape-rendering="crispEdges"/><rect fill="#1e1e1e" x="36.6" y="684.7" width="878.4" height="24.65" shape-rendering="crispEdges"/><rect fill="#1e1e1e" x="915" y="684.7" width="12.2" height="24.65" shape-rendering="crispEdges"/><rect fill="#1e1e1e" x="927.2" y="684.7" width="207.4" height="24.65" shape-rendering="crispEdges"/><rect fill="#1e1e1e" x="1134.6" y="684.7" width="24.4" height="24.65" shape-rendering="crispEdges"/><rect fill="#1e1e1e" x="0" y="709.1" width="24.4" height="24.65" shape-rendering="crispEdges"/><rect fill="#1e1e1e" x="24.4" y="709.1" width="1110.2" height="24.65" shape-rendering="crispEdges"/><rect fill="#1e1e1e" x="1134.6" y="709.1" width="24.4" height="24.65" shape-rendering="crispEdges"/><rect fill="#1e1e1e" x="0" y="733.5" width="1159" height="24.65" shape-rendering="crispEdges"/><rect fill="#242f38" x="0" y="757.9" width="36.6" height="24.65" shape-rendering="crispEdges"/><rect fill="#242f38" x="36.6" y="757.9" width="61" height="24.65" shape-rendering="crispEdges"/><rect fill="#242f38" x="97.6" y="757.9" width="36.6" height="24.65" shape-rendering="crispEdges"/><rect fill="#242f38" x="134.2" y="757.9" width="85.4" height="24.65" shape-rendering="crispEdges"/><rect fill="#242f38" x="219.6" y="757.9" width="36.6" height="24.65" shape-rendering="crispEdges"/><rect fill="#242f38" x="256.2" y="757.9" width="97.6" height="24.65" shape-rendering="crispEdges"/><rect fill="#242f38" x="353.8" y="757.9" width="658.8" height="24.65" shape-rendering="crispEdges"/><rect fill="#242f38" x="1012.6" y="757.9" width="12.2" height="24.65" shape-rendering="crispEdges"/><rect fill="#242f38" x="1024.8" y="757.9" width="24.4" height="24.65" shape-rendering="crispEdges"/><rect fill="#242f38" x="1049.2" y="757.9" width="97.6" height="24.65" shape-rendering="crispEdges"/><rect fill="#242f38" x="1146.8" y="757.9" width="12.2" height="24.65" shape-rendering="crispEdges"/>
    <g class="terminal-1964389130-matrix">
    <text class="terminal-1964389130-r2" x="12.2" y="20" textLength="12.2" clip-path="url(#terminal-1964389130-line-0)">⭘</text><text class="terminal-1964389130-r2" x="341.6" y="20" textLength="341.6" clip-path="url(#terminal-1964389130-line-0)">Vintage&#160;Story&#160;Server&#160;Manager</text><text class="terminal-1964389130-r3" x="683.2" y="20" textLength="36.6" clip-path="url(#terminal-1964389130-line-0)">&#160;—&#160;</text><text class="terminal-1964389130-r3" x="719.8" y="20" textLength="73.2" clip-path="url(#terminal-1964389130-line-0)">v0.2.0</text><text class="terminal-1964389130-r1" x="1159" y="20" textLength="12.2" clip-path="url(#terminal-1964389130-line-0)">
</text><text class="terminal-1964389130-r4" x="12.2" y="44.4" textLength="73.2" clip-path="url(#terminal-1964389130-line-1)">Status</text><text class="terminal-1964389130-r4" x="109.8" y="44.4" textLength="48.8" clip-path="url(#terminal-1964389130-line-1)">Logs</text><text class="terminal-1964389130-r4" x="183" y="44.4" textLength="85.4" clip-path="url(#terminal-1964389130-line-1)">Backups</text><text class="terminal-1964389130-r4" x="292.8" y="44.4" textLength="109.8" clip-path="url(#terminal-1964389130-line-1)">Scheduler</text><text class="terminal-1964389130-r5" x="427" y="44.4" textLength="85.4" clip-path="url(#terminal-1964389130-line-1)">Console</text><text class="terminal-1964389130-r1" x="1159" y="44.4" textLength="12.2" clip-path="url(#terminal-1964389130-line-1)">
</text><text class="terminal-1964389130-r6" x="0" y="68.8" textLength="414.8" clip-path="url(#terminal-1964389130-line-2)">━━━━━━━━━━━━━━━━━━━━━━━━━━━━━━━━━━</text><text class="terminal-1964389130-r6" x="414.8" y="68.8" textLength="12.2" clip-path="url(#terminal-1964389130-line-2)">╸</text><text class="terminal-1964389130-r7" x="427" y="68.8" textLength="85.4" clip-path="url(#terminal-1964389130-line-2)">━━━━━━━</text><text class="terminal-1964389130-r6" x="512.4" y="68.8" textLength="12.2" clip-path="url(#terminal-1964389130-line-2)">╺</text><text class="terminal-1964389130-r6" x="524.6" y="68.8" textLength="634.4" clip-path="url(#terminal-1964389130-line-2)">━━━━━━━━━━━━━━━━━━━━━━━━━━━━━━━━━━━━━━━━━━━━━━━━━━━━</text><text class="terminal-1964389130-r1" x="1159" y="68.8" textLength="12.2" clip-path="url(#terminal-1964389130-line-2)">
</text><text class="terminal-1964389130-r1" x="1159" y="93.2" textLength="12.2" clip-path="url(#terminal-1964389130-line-3)">
</text><text class="terminal-1964389130-r7" x="24.4" y="117.6" textLength="12.2" clip-path="url(#terminal-1964389130-line-4)">┌</text><text class="terminal-1964389130-r7" x="36.6" y="117.6" textLength="1085.8" clip-path="url(#terminal-1964389130-line-4)">─────────────────────────────────────────────────────────────────────────────────────────</text><text class="terminal-1964389130-r7" x="1122.4" y="117.6" textLength="12.2" clip-path="url(#terminal-1964389130-line-4)">┐</text><text class="terminal-1964389130-r1" x="1159" y="117.6" textLength="12.2" clip-path="url(#terminal-1964389130-line-4)">
</text><text class="terminal-1964389130-r7" x="24.4" y="142" textLength="12.2" clip-path="url(#terminal-1964389130-line-5)">│</text><text class="terminal-1964389130-r8" x="36.6" y="142" textLength="524.6" clip-path="url(#terminal-1964389130-line-5)">Server&#160;console&#160;ready.&#160;Enter&#160;commands&#160;below.</text><text class="terminal-1964389130-r7" x="1122.4" y="142" textLength="12.2" clip-path="url(#terminal-1964389130-line-5)">│</text><text class="terminal-1964389130-r1" x="1159" y="142" textLength="12.2" clip-path="url(#terminal-1964389130-line-5)">
</text><text class="terminal-1964389130-r7" x="24.4" y="166.4" textLength="12.2" clip-path="url(#terminal-1964389130-line-6)">│</text><text class="terminal-1964389130-r8" x="36.6" y="166.4" textLength="488" clip-path="url(#terminal-1964389130-line-6)">Common&#160;commands:&#160;list&#160;clients,&#160;announce&#160;</text><text class="terminal-1964389130-r9" x="524.6" y="166.4" textLength="12.2" clip-path="url(#terminal-1964389130-line-6)">&lt;</text><text class="terminal-1964389130-r10" x="536.8" y="166.4" textLength="36.6" clip-path="url(#terminal-1964389130-line-6)">msg</text><text class="terminal-1964389130-r9" x="573.4" y="166.4" textLength="12.2" clip-path="url(#terminal-1964389130-line-6)">&gt;</text><text class="terminal-1964389130-r8" x="585.6" y="166.4" textLength="134.2" clip-path="url(#terminal-1964389130-line-6)">,&#160;genbackup</text><text class="terminal-1964389130-r7" x="1122.4" y="166.4" textLength="12.2" clip-path="url(#terminal-1964389130-line-6)">│</text><text class="terminal-1964389130-r1" x="1159" y="166.4" textLength="12.2" clip-path="url(#terminal-1964389130-line-6)">
</text><text class="terminal-1964389130-r7" x="24.4" y="190.8" textLength="12.2" clip-path="url(#terminal-1964389130-line-7)">│</text><text class="terminal-1964389130-r7" x="1122.4" y="190.8" textLength="12.2" clip-path="url(#terminal-1964389130-line-7)">│</text><text class="terminal-1964389130-r1" x="1159" y="190.8" textLength="12.2" clip-path="url(#terminal-1964389130-line-7)">
</text><text class="terminal-1964389130-r7" x="24.4" y="215.2" textLength="12.2" clip-path="url(#terminal-1964389130-line-8)">│</text><text class="terminal-1964389130-r7" x="1122.4" y="215.2" textLength="12.2" clip-path="url(#terminal-1964389130-line-8)">│</text><text class="terminal-1964389130-r1" x="1159" y="215.2" textLength="12.2" clip-path="url(#terminal-1964389130-line-8)">
</text><text class="terminal-1964389130-r7" x="24.4" y="239.6" textLength="12.2" clip-path="url(#terminal-1964389130-line-9)">│</text><text class="terminal-1964389130-r7" x="1122.4" y="239.6" textLength="12.2" clip-path="url(#terminal-1964389130-line-9)">│</text><text class="terminal-1964389130-r1" x="1159" y="239.6" textLength="12.2" clip-path="url(#terminal-1964389130-line-9)">
</text><text class="terminal-1964389130-r7" x="24.4" y="264" textLength="12.2" clip-path="url(#terminal-1964389130-line-10)">│</text><text class="terminal-1964389130-r7" x="1122.4" y="264" textLength="12.2" clip-path="url(#terminal-1964389130-line-10)">│</text><text class="terminal-1964389130-r1" x="1159" y="264" textLength="12.2" clip-path="url(#terminal-1964389130-line-10)">
</text><text class="terminal-1964389130-r7" x="24.4" y="288.4" textLength="12.2" clip-path="url(#terminal-1964389130-line-11)">│</text><text class="terminal-1964389130-r7" x="1122.4" y="288.4" textLength="12.2" clip-path="url(#terminal-1964389130-line-11)">│</text><text class="terminal-1964389130-r1" x="1159" y="288.4" textLength="12.2" clip-path="url(#terminal-1964389130-line-11)">
</text><text class="terminal-1964389130-r7" x="24.4" y="312.8" textLength="12.2" clip-path="url(#terminal-1964389130-line-12)">│</text><text class="terminal-1964389130-r7" x="1122.4" y="312.8" textLength="12.2" clip-path="url(#terminal-1964389130-line-12)">│</text><text class="terminal-1964389130-r1" x="1159" y="312.8" textLength="12.2" clip-path="url(#terminal-1964389130-line-12)">
</text><text class="terminal-1964389130-r7" x="24.4" y="337.2" textLength="12.2" clip-path="url(#terminal-1964389130-line-13)">│</text><text class="terminal-1964389130-r7" x="1122.4" y="337.2" textLength="12.2" clip-path="url(#terminal-1964389130-line-13)">│</text><text class="terminal-1964389130-r1" x="1159" y="337.2" textLength="12.2" clip-path="url(#terminal-1964389130-line-13)">
</text><text class="terminal-1964389130-r7" x="24.4" y="361.6" textLength="12.2" clip-path="url(#terminal-1964389130-line-14)">│</text><text class="terminal-1964389130-r7" x="1122.4" y="361.6" textLength="12.2" clip-path="url(#terminal-1964389130-line-14)">│</text><text class="terminal-1964389130-r1" x="1159" y="361.6" textLength="12.2" clip-path="url(#terminal-1964389130-line-14)">
</text><text class="terminal-1964389130-r7" x="24.4" y="386" textLength="12.2" clip-path="url(#terminal-1964389130-line-15)">│</text><text class="terminal-1964389130-r7" x="1122.4" y="386" textLength="12.2" clip-path="url(#terminal-1964389130-line-15)">│</text><text class="terminal-1964389130-r1" x="1159" y="386" textLength="12.2" clip-path="url(#terminal-1964389130-line-15)">
</text><text class="terminal-1964389130-r7" x="24.4" y="410.4" textLength="12.2" clip-path="url(#terminal-1964389130-line-16)">│</text><text class="terminal-1964389130-r7" x="1122.4" y="410.4" textLength="12.2" clip-path="url(#terminal-1964389130-line-16)">│</text><text class="terminal-1964389130-r1" x="1159" y="410.4" textLength="12.2" clip-path="url(#terminal-1964389130-line-16)">
</text><text class="terminal-1964389130-r7" x="24.4" y="434.8" textLength="12.2" clip-path="url(#terminal-1964389130-line-17)">│</text><text class="terminal-1964389130-r7" x="1122.4" y="434.8" textLength="12.2" clip-path="url(#terminal-1964389130-line-17)">│</text><text class="terminal-1964389130-r1" x="1159" y="434.8" textLength="12.2" clip-path="url(#terminal-1964389130-line-17)">
</text><text class="terminal-1964389130-r7" x="24.4" y="459.2" textLength="12.2" clip-path="url(#terminal-1964389130-line-18)">│</text><text class="terminal-1964389130-r7" x="1122.4" y="459.2" textLength="12.2" clip-path="url(#terminal-1964389130-line-18)">│</text><text class="terminal-1964389130-r1" x="1159" y="459.2" textLength="12.2" clip-path="url(#terminal-1964389130-line-18)">
</text><text class="terminal-1964389130-r7" x="24.4" y="483.6" textLength="12.2" clip-path="url(#terminal-1964389130-line-19)">│</text><text class="terminal-1964389130-r7" x="1122.4" y="483.6" textLength="12.2" clip-path="url(#terminal-1964389130-line-19)">│</text><text class="terminal-1964389130-r1" x="1159" y="483.6" textLength="12.2" clip-path="url(#terminal-1964389130-line-19)">
</text><text class="terminal-1964389130-r7" x="24.4" y="508" textLength="12.2" clip-path="url(#terminal-1964389130-line-20)">│</text><text class="terminal-1964389130-r7" x="1122.4" y="508" textLength="12.2" clip-path="url(#terminal-1964389130-line-20)">│</text><text class="terminal-1964389130-r1" x="1159" y="508" textLength="12.2" clip-path="url(#terminal-1964389130-line-20)">
</text><text class="terminal-1964389130-r7" x="24.4" y="532.4" textLength="12.2" clip-path="url(#terminal-1964389130-line-21)">│</text><text class="terminal-1964389130-r7" x="1122.4" y="532.4" textLength="12.2" clip-path="url(#terminal-1964389130-line-21)">│</text><text class="terminal-1964389130-r1" x="1159" y="532.4" textLength="12.2" clip-path="url(#terminal-1964389130-line-21)">
</text><text class="terminal-1964389130-r7" x="24.4" y="556.8" textLength="12.2" clip-path="url(#terminal-1964389130-line-22)">│</text><text class="terminal-1964389130-r7" x="1122.4" y="556.8" textLength="12.2" clip-path="url(#terminal-1964389130-line-22)">│</text><text class="terminal-1964389130-r1" x="1159" y="556.8" textLength="12.2" clip-path="url(#terminal-1964389130-line-22)">
</text><text class="terminal-1964389130-r7" x="24.4" y="581.2" textLength="12.2" clip-path="url(#terminal-1964389130-line-23)">│</text><text class="terminal-1964389130-r7" x="1122.4" y="581.2" textLength="12.2" clip-path="url(#terminal-1964389130-line-23)">│</text><text class="terminal-1964389130-r1" x="1159" y="581.2" textLength="12.2" clip-path="url(#terminal-1964389130-line-23)">
</text><text class="terminal-1964389130-r7" x="24.4" y="605.6" textLength="12.2" clip-path="url(#terminal-1964389130-line-24)">└</text><text class="terminal-1964389130-r7" x="36.6" y="605.6" textLength="1085.8" clip-path="url(#terminal-1964389130-line-24)">─────────────────────────────────────────────────────────────────────────────────────────</text><text class="terminal-1964389130-r7" x="1122.4" y="605.6" textLength="12.2" clip-path="url(#terminal-1964389130-line-24)">┘</text><text class="terminal-1964389130-r1" x="1159" y="605.6" textLength="12.2" clip-path="url(#terminal-1964389130-line-24)">
</text><text class="terminal-1964389130-r1" x="1159" y="630" textLength="12.2" clip-path="url(#terminal-1964389130-line-25)">
</text><text class="terminal-1964389130-r11" x="24.4" y="654.4" textLength="12.2" clip-path="url(#terminal-1964389130-line-26)">▊</text><text class="terminal-1964389130-r12" x="36.6" y="654.4" textLength="878.4" clip-path="url(#terminal-1964389130-line-26)">▔▔▔▔▔▔▔▔▔▔▔▔▔▔▔▔▔▔▔▔▔▔▔▔▔▔▔▔▔▔▔▔▔▔▔▔▔▔▔▔▔▔▔▔▔▔▔▔▔▔▔▔▔▔▔▔▔▔▔▔▔▔▔▔▔▔▔▔▔▔▔▔</text><text class="terminal-1964389130-r12" x="915" y="654.4" textLength="12.2" clip-path="url(#terminal-1964389130-line-26)">▎</text><text class="terminal-1964389130-r5" x="1000.4" y="654.4" textLength="73.2" clip-path="url(#terminal-1964389130-line-26)">&#160;Send&#160;</text><text class="terminal-1964389130-r1" x="1159" y="654.4" textLength="12.2" clip-path="url(#terminal-1964389130-line-26)">
</text><text class="terminal-1964389130-r11" x="24.4" y="678.8" textLength="12.2" clip-path="url(#terminal-1964389130-line-27)">▊</text><text class="terminal-1964389130-r13" x="61" y="678.8" textLength="280.6" clip-path="url(#terminal-1964389130-line-27)">Enter&#160;server&#160;command...</text><text class="terminal-1964389130-r12" x="915" y="678.8" textLength="12.2" clip-path="url(#terminal-1964389130-line-27)">▎</text><text class="terminal-1964389130-r1" x="1159" y="678.8" textLength="12.2" clip-path="url(#terminal-1964389130-line-27)">
</text><text class="terminal-1964389130-r11" x="24.4" y="703.2" textLength="12.2" clip-path="url(#terminal-1964389130-line-28)">▊</text><text class="terminal-1964389130-r12" x="36.6" y="703.2" textLength="878.4" clip-path="url(#terminal-1964389130-line-28)">▁▁▁▁▁▁▁▁▁▁▁▁▁▁▁▁▁▁▁▁▁▁▁▁▁▁▁▁▁▁▁▁▁▁▁▁▁▁▁▁▁▁▁▁▁▁▁▁▁▁▁▁▁▁▁▁▁▁▁▁▁▁▁▁▁▁▁▁▁▁▁▁</text><text class="terminal-1964389130-r12" x="915" y="703.2" textLength="12.2" clip-path="url(#terminal-1964389130-line-28)">▎</text><text class="terminal-1964389130-r1" x="1159" y="703.2" textLength="12.2" clip-path="url(#terminal-1964389130-line-28)">
</text><text class="terminal-1964389130-r1" x="1159" y="727.6" textLength="12.2" clip-path="url(#terminal-1964389130-line-29)">
</text><text class="terminal-1964389130-r1" x="1159" y="752" textLength="12.2" clip-path="url(#terminal-1964389130-line-30)">
</text><text class="terminal-1964389130-r14" x="0" y="776.4" textLength="36.6" clip-path="url(#terminal-1964389130-line-31)">&#160;q&#160;</text><text class="terminal-1964389130-r2" x="36.6" y="776.4" textLength="61" clip-path="url(#terminal-1964389130-line-31)">Quit&#160;</text><text class="terminal-1964389130-r14" x="97.6" y="776.4" textLength="36.6" clip-path="url(#terminal-1964389130-line-31)">&#160;c&#160;</text><text class="terminal-1964389130-r2" x="134.2" y="776.4" textLength="85.4" clip-path="url(#terminal-1964389130-line-31)">Config&#160;</text><text class="terminal-1964389130-r14" x="219.6" y="776.4" textLength="36.6" clip-path="url(#terminal-1964389130-line-31)">&#160;r&#160;</text><text class="terminal-1964389130-r2" x="256.2" y="776.4" textLength="97.6" clip-path="url(#terminal-1964389130-line-31)">Refresh&#160;</text><text class="terminal-1964389130-r15" x="1012.6" y="776.4" textLength="12.2" clip-path="url(#terminal-1964389130-line-31)">▏</text><text class="terminal-1964389130-r14" x="1024.8" y="776.4" textLength="24.4" clip-path="url(#terminal-1964389130-line-31)">^p</text><text class="terminal-1964389130-r2" x="1049.2" y="776.4" textLength="97.6" clip-path="url(#terminal-1964389130-line-31)">&#160;palette</text>
    </g>
    </g>
</svg>
